<?xml version="1.0" encoding="utf-8"?>
<!-- Generator: Adobe Illustrator 27.0.0, SVG Export Plug-In . SVG Version: 6.00 Build 0)  -->
<svg version="1.1" id="Calque_3" xmlns="http://www.w3.org/2000/svg" xmlns:xlink="http://www.w3.org/1999/xlink" x="0px" y="0px"
	 viewBox="0 0 50.7 50.7" style="enable-background:new 0 0 50.7 50.7;" xml:space="preserve">
<style type="text/css">
	.st0{fill:#1F726F;}
	.st1{clip-path:url(#SVGID_00000032634878902976918730000008789082171140092856_);}
	.st2{fill:none;stroke:#1F726F;stroke-width:4;stroke-linecap:round;stroke-linejoin:round;stroke-miterlimit:10;}
	.st3{fill:none;stroke:#1F726F;stroke-miterlimit:10;}
</style>
<g>
	<path class="st0" d="M25.5,3.3c12.2,0,22.2,10,22.2,22.2s-10,22.2-22.2,22.2S3.3,37.7,3.3,25.5S13.2,3.3,25.5,3.3 M25.5,2.3
		C12.7,2.3,2.3,12.6,2.3,25.5c0,12.8,10.4,23.2,23.2,23.2s23.2-10.4,23.2-23.2C48.7,12.6,38.3,2.3,25.5,2.3L25.5,2.3z"/>
</g>
<g>
	<g>
		<g>
			<defs>
				<circle id="SVGID_00000168825412435551632540000009149681989443813543_" cx="25.5" cy="25.5" r="23.2"/>
			</defs>
			<clipPath id="SVGID_00000027575799093589662590000009241114397148407740_">
				<use xlink:href="#SVGID_00000168825412435551632540000009149681989443813543_"  style="overflow:visible;"/>
			</clipPath>
			<g style="clip-path:url(#SVGID_00000027575799093589662590000009241114397148407740_);">
				<line class="st2" x1="52.2" y1="-1.8" x2="13.4" y2="37.1"/>
				<line class="st2" x1="42.2" y1="-1.8" x2="3.4" y2="37.1"/>
				<line class="st2" x1="32.2" y1="-1.8" x2="-6.6" y2="37.1"/>
				<line class="st2" x1="22.2" y1="-1.8" x2="-16.6" y2="37.1"/>
				<line class="st2" x1="62.2" y1="-1.8" x2="23.4" y2="37.1"/>
				<line class="st2" x1="72.2" y1="-1.8" x2="33.4" y2="37.1"/>
				<line class="st2" x1="82.2" y1="-1.8" x2="43.4" y2="37.1"/>
			</g>
			
				<use xlink:href="#SVGID_00000168825412435551632540000009149681989443813543_"  style="overflow:visible;fill:none;stroke:#1F726F;stroke-miterlimit:10;"/>
		</g>
		<g>
			<circle id="SVGID_1_" class="st3" cx="25.5" cy="25.5" r="23.2"/>
		</g>
	</g>
</g>
</svg>
