<?xml version="1.0" encoding="utf-8"?>
<!-- Generator: Adobe Illustrator 27.0.0, SVG Export Plug-In . SVG Version: 6.00 Build 0)  -->
<svg version="1.1" id="Calque_1" xmlns="http://www.w3.org/2000/svg" xmlns:xlink="http://www.w3.org/1999/xlink" x="0px" y="0px"
	 viewBox="0 0 85.04 85.04" style="enable-background:new 0 0 85.04 85.04;" xml:space="preserve">
<style type="text/css">
	.st0{fill:#81BAB8;}
	.st1{display:none;fill:none;stroke:#E0F5F3;stroke-width:2;stroke-miterlimit:10;}
	.st2{fill:#DAEFED;}
</style>
<g>
	<g>
		<g>
			<path class="st0" d="M-52.91,11.81c-23.48,0-42.52,19.04-42.52,42.52s19.04,42.52,42.52,42.52c23.48,0,42.52-19.04,42.52-42.52
				S-29.43,11.81-52.91,11.81z M-70.81,83.03V24.29l50.88,29.37L-70.81,83.03z"/>
		</g>
	</g>
	<polygon class="st1" points="-67.42,30.3 -67.42,77.02 -26.96,53.66 	"/>
</g>
<g>
	<g>
		<path class="st0" d="M42.52,0C19.04,0,0,19.04,0,42.52s19.04,42.52,42.52,42.52C66,85.04,85.04,66,85.04,42.52S66,0,42.52,0z
			 M28.88,63.71V21.33l36.71,21.19L28.88,63.71z"/>
	</g>
	<polygon class="st2" points="28.88,63.71 65.59,42.52 28.88,21.33 	"/>
</g>
</svg>
