<?xml version="1.0" encoding="utf-8"?>
<!-- Generator: Adobe Illustrator 27.0.0, SVG Export Plug-In . SVG Version: 6.00 Build 0)  -->
<svg version="1.1" id="Calque_1" xmlns="http://www.w3.org/2000/svg" xmlns:xlink="http://www.w3.org/1999/xlink" x="0px" y="0px"
	 viewBox="0 0 113.39 113.39" style="enable-background:new 0 0 113.39 113.39;" xml:space="preserve">
<g>
	<path d="M0.01,79.27c0.66-5.01,1.22-10.03,2.02-15.02c1.54-9.53,3.69-18.92,7.46-27.85c1.44-3.42,3.28-6.68,5.01-9.97
		c0.34-0.66,0.94-1.27,1.57-1.67c7.66-4.91,15.76-8.71,24.91-9.81c2.33-0.28,3.5,0.34,4.58,2.41c1.48,2.85,3.01,5.67,4.46,8.53
		c0.46,0.9,1.09,1.1,2.06,1.07c3.09-0.07,6.19-0.07,9.29,0.01c0.98,0.02,1.59-0.23,2.04-1.11c1.44-2.83,2.95-5.62,4.41-8.43
		c1.12-2.14,2.27-2.74,4.65-2.47c7.05,0.81,13.5,3.38,19.69,6.7c1.2,0.65,2.34,1.41,3.56,2.03c1.93,0.98,3.22,2.51,4.24,4.37
		c2.96,5.35,5.23,10.99,7,16.83c3.27,10.82,5.15,21.9,6.17,33.14c0.06,0.66,0.02,1.33,0.06,1.99c0.07,1.26-0.4,2.24-1.3,3.15
		c-6.25,6.35-13.48,11.17-22.08,13.63c-3.27,0.94-6.73,1.23-10.11,1.73c-1.76,0.26-3.1-0.54-4.18-1.96
		c-2.38-3.11-4.86-6.13-7.22-9.25c-0.74-0.98-1.55-1.25-2.73-1.18c-3.68,0.22-7.37,0.4-11.05,0.42c-2.32,0.02-4.64-0.22-6.95-0.43
		c-1.05-0.1-1.72,0.25-2.35,1.06c-2.36,3.07-4.84,6.06-7.15,9.17c-1.29,1.74-2.88,2.32-4.98,2.18c-7.42-0.46-14.24-2.8-20.55-6.63
		c-3.86-2.35-7.41-5.09-10.61-8.3c-1.24-1.25-2.03-2.51-1.65-4.32C0.2,79.27,0.11,79.27,0.01,79.27z M31.84,92.14
		c0.62-0.22,1.45-0.27,1.82-0.7c1.6-1.84,3.06-3.79,4.57-5.7c0.44-0.56,0.3-0.95-0.38-1.14c-0.28-0.08-0.57-0.14-0.86-0.21
		c-5.72-1.29-11.22-3.2-16.37-6.02c-1.39-0.76-2.76-1.58-3.99-2.58c-1.34-1.09-1.45-2.89-0.49-4.18c0.95-1.28,2.69-1.62,4.18-0.82
		c0.26,0.14,0.5,0.31,0.75,0.47c3.65,2.36,7.61,4.08,11.75,5.37c11.35,3.55,22.95,4.33,34.71,2.84c8.99-1.13,17.56-3.58,25.29-8.52
		c1.59-1.02,3.45-0.69,4.46,0.69c1.02,1.4,0.77,3.24-0.76,4.41c-1.14,0.87-2.39,1.61-3.65,2.29c-5.29,2.87-10.91,4.86-16.8,6.13
		c-1.37,0.3-1.46,0.56-0.61,1.64c0.98,1.25,2.12,2.4,2.92,3.76c1.2,2.03,2.81,2.28,4.96,1.91c8.94-1.54,16.38-5.9,22.87-12.04
		c0.35-0.33,0.51-1.07,0.46-1.6c-0.81-9.13-2.27-18.17-4.61-27.04c-1.84-6.94-4.11-13.72-7.74-19.97c-0.41-0.71-0.98-1.48-1.68-1.84
		c-4.01-2.04-8.02-4.09-12.14-5.87c-2.04-0.88-4.31-1.25-6.51-1.75c-0.42-0.09-1.19,0.16-1.39,0.5c-0.9,1.48-1.66,3.04-2.45,4.59
		c-0.29,0.56-0.07,0.93,0.53,1.06c0.4,0.09,0.8,0.15,1.2,0.22c5.88,1.02,11.61,2.56,17.05,5.03c0.76,0.34,1.5,0.81,2.1,1.38
		c0.95,0.9,1.11,2.06,0.57,3.26c-0.53,1.19-1.48,1.88-2.78,1.84c-0.75-0.02-1.51-0.29-2.23-0.53c-3.64-1.21-7.21-2.68-10.91-3.61
		c-7.89-1.99-15.93-2.55-24.06-2.05c-7.12,0.44-14.06,1.7-20.79,4.08c-1.53,0.54-3,1.23-4.51,1.83c-2.2,0.86-4.26-0.11-4.69-2.2
		c-0.3-1.44,0.45-2.86,2.11-3.62c1.77-0.82,3.56-1.68,5.43-2.2c4.3-1.2,8.64-2.23,12.98-3.28c1.45-0.35,1.55-0.48,0.82-1.81
		c-0.57-1.04-1.09-2.09-1.63-3.15c-0.8-1.57-0.91-1.62-2.68-1.24c-6.55,1.4-12.5,4.2-18.14,7.73c-0.51,0.32-0.98,0.83-1.24,1.37
		c-1.71,3.6-3.6,7.13-4.96,10.86C10,53.53,7.88,65.81,6.74,78.28c-0.05,0.53,0.24,1.3,0.65,1.62c2.83,2.24,5.61,4.58,8.64,6.52
		C20.8,89.49,26.06,91.4,31.84,92.14z"/>
	<path d="M60.68,57.96c0.08-4.49,1.78-8.25,5.48-10.8c5.35-3.69,12.05-2.23,15.69,3.21c3.55,5.3,2.97,12.53-1.38,17.19
		c-5.02,5.37-13.63,4.39-17.67-2.03C61.34,63.22,60.63,60.7,60.68,57.96z M67.1,58.15c-0.09,0.03-0.18,0.06-0.27,0.1
		c0.44,1.27,0.71,2.63,1.35,3.78c1.88,3.35,6.1,3.46,8.3,0.32c1.66-2.38,1.7-5.94,0.1-8.36c-2.11-3.18-6.1-3.24-8.29-0.12
		C67.39,55.15,67.1,56.61,67.1,58.15z"/>
	<path d="M52.73,58.1c-0.09,4.15-1.45,7.75-4.78,10.38c-5.17,4.07-11.66,3.26-15.79-1.88c-4.58-5.69-3.66-14.62,1.95-18.99
		c5.18-4.04,12.27-2.98,16.06,2.4C51.88,52.43,52.81,55.1,52.73,58.1z M46.42,58.08c-0.19-0.93-0.27-1.9-0.59-2.79
		c-1.46-4.09-5.89-4.99-8.64-1.79c-2.27,2.64-1.99,7.45,0.56,9.81c1.94,1.79,4.69,1.76,6.56-0.1C45.73,61.8,46.34,60.08,46.42,58.08
		z"/>
</g>
</svg>
