<?xml version="1.0" encoding="utf-8"?>
<!-- Generator: Adobe Illustrator 27.0.0, SVG Export Plug-In . SVG Version: 6.00 Build 0)  -->
<svg version="1.1" id="Calque_1" xmlns="http://www.w3.org/2000/svg" xmlns:xlink="http://www.w3.org/1999/xlink" x="0px" y="0px"
	 viewBox="0 0 113.4 113.4" style="enable-background:new 0 0 113.4 113.4;" xml:space="preserve">
<path d="M56.5,104.3c-14.3,0-28.5,0-42.8,0c-5.5,0-7.7-2.2-7.7-7.8c0-16.4,0-32.8,0-49.1c0-3.2,1.2-5.5,3.8-7.3
	C23.7,30.4,37.5,20.7,51.4,11c3.6-2.5,5.7-2.6,9.3-0.2c14.4,9.8,28.8,19.7,43.3,29.5c2.3,1.6,3.5,3.6,3.5,6.5
	c-0.1,16.8,0,33.5,0,50.3c0,4.6-2.5,7.1-7.2,7.1C85.6,104.3,71,104.3,56.5,104.3z M94.5,91.6c0.1-0.8,0.2-1.4,0.2-1.9
	c0-12.8,0-25.7,0-38.5c0-1.6-0.8-2.4-2-3.2c-11.6-7.9-23.1-15.8-34.7-23.7c-1.4-1-2.4-1-3.8,0c-11.2,7.9-22.5,15.8-33.8,23.7
	c-1.4,1-1.9,2-1.9,3.7c0.1,12.4,0.1,24.7,0,37.1c0,2.3,0.7,2.9,2.9,2.9c23.5-0.1,46.9-0.1,70.4-0.1C92.7,91.6,93.5,91.6,94.5,91.6z"
	/>
</svg>
