<?xml version="1.0" encoding="utf-8"?>
<!-- Generator: Adobe Illustrator 27.0.0, SVG Export Plug-In . SVG Version: 6.00 Build 0)  -->
<svg version="1.1" id="Calque_1" xmlns="http://www.w3.org/2000/svg" xmlns:xlink="http://www.w3.org/1999/xlink" x="0px" y="0px"
	 viewBox="0 0 113.39 113.39" style="enable-background:new 0 0 113.39 113.39;" xml:space="preserve">
<g>
	<path d="M31.47,0c16.93,0,33.86,0,50.79,0c1.16,0.11,2.34,0.18,3.49,0.34c7.83,1.06,14.47,4.39,19.72,10.38
		c4.8,5.48,7.39,11.84,7.71,19.12c0.02,0.43,0.14,0.86,0.21,1.3c0,16.93,0,33.86,0,50.79c-0.07,0.4-0.16,0.79-0.22,1.19
		c-0.36,2.36-0.46,4.79-1.13,7.05c-3.27,11.04-10.51,18.22-21.52,21.59c-3.92,1.2-7.98,1.28-12.02,1.28
		c-14.83,0.02-29.66,0.01-44.49,0.01c-5.7,0-11.21-0.81-16.36-3.43c-6.15-3.12-10.76-7.75-13.89-13.87
		c-2.58-5.03-3.4-10.46-3.41-16.04C0.34,64.25,0.34,48.79,0.36,33.34c0-1.84,0.07-3.69,0.3-5.5c0.99-7.9,4.33-14.59,10.36-19.88
		c5.49-4.82,11.85-7.42,19.15-7.74C30.6,0.2,31.03,0.07,31.47,0z M103.46,56.64c0-8.5,0.01-17,0-25.5
		C103.43,19.49,93.92,9.95,82.3,9.93c-16.96-0.02-33.93-0.02-50.89,0c-11.62,0.01-21.14,9.55-21.15,21.2
		c-0.02,16.93-0.02,33.85,0,50.78c0.01,11.69,9.54,21.2,21.26,21.21c16.89,0.02,33.78,0.02,50.67,0
		c11.76-0.01,21.25-9.53,21.26-21.32C103.47,73.42,103.46,65.03,103.46,56.64z"/>
	<path d="M85.78,56.61c0.2,15.75-13.16,28.96-29.06,28.89c-15.71-0.07-28.93-13.22-28.84-29.17c0.09-15.67,13.24-28.91,29.22-28.78
		C72.74,27.68,86.06,40.76,85.78,56.61z M76.08,56.49C76.06,46,67.35,37.31,56.85,37.31c-10.5,0-19.2,8.7-19.2,19.2
		c0,10.55,8.72,19.25,19.28,19.23C67.41,75.73,76.09,67,76.08,56.49z"/>
	<path d="M94.39,26.28c0,3.94-3.21,7.18-7.14,7.2c-3.96,0.02-7.21-3.26-7.19-7.26c0.02-3.97,3.2-7.18,7.14-7.19
		C91.14,19.01,94.39,22.28,94.39,26.28z"/>
</g>
</svg>
