<?xml version="1.0" encoding="utf-8"?>
<!-- Generator: Adobe Illustrator 27.0.0, SVG Export Plug-In . SVG Version: 6.00 Build 0)  -->
<svg version="1.1" xmlns="http://www.w3.org/2000/svg" xmlns:xlink="http://www.w3.org/1999/xlink" x="0px" y="0px"
	 viewBox="0 0 113.39 113.39" style="enable-background:new 0 0 113.39 113.39;" xml:space="preserve">
<style type="text/css">
	.st0{display:none;}
	.st1{display:inline;fill-rule:evenodd;clip-rule:evenodd;}
	.st2{fill-rule:evenodd;clip-rule:evenodd;}
</style>
<g id="Calque_1" class="st0">
	<path class="st1" d="M104.07,15.71H9.32c-2.45,0-4.44-1.99-4.44-4.44v0c0-2.45,1.99-4.44,4.44-4.44h94.75
		c2.45,0,4.44,1.99,4.44,4.44v0C108.51,13.72,106.52,15.71,104.07,15.71z"/>
	<path class="st1" d="M104.07,38.61H9.32c-2.45,0-4.44,1.99-4.44,4.44v0c0,2.45,1.99,4.44,4.44,4.44h94.75
		c2.45,0,4.44-1.99,4.44-4.44v0C108.51,40.6,106.52,38.61,104.07,38.61z"/>
	<path class="st1" d="M104.07,68.54H9.32c-2.45,0-4.44,1.99-4.44,4.44v0c0,2.45,1.99,4.44,4.44,4.44h94.75
		c2.45,0,4.44-1.99,4.44-4.44v0C108.51,70.53,106.52,68.54,104.07,68.54z"/>
	<path class="st1" d="M104.07,108.95H9.32c-2.45,0-4.44-1.99-4.44-4.44v0c0-2.45,1.99-4.44,4.44-4.44h94.75
		c2.45,0,4.44,1.99,4.44,4.44v0C108.51,106.96,106.52,108.95,104.07,108.95z"/>
</g>
<g id="Calque_2">
	<path class="st2" d="M96.75,105.04L8.34,16.64c-2.29-2.29-2.29-6,0-8.29l0,0c2.29-2.29,6-2.29,8.29,0l88.41,88.41
		c2.29,2.29,2.29,6,0,8.29l0,0C102.75,107.33,99.04,107.33,96.75,105.04z"/>
	<path class="st2" d="M16.64,105.04l88.41-88.41c2.29-2.29,2.29-6,0-8.29l0,0c-2.29-2.29-6-2.29-8.29,0L8.34,96.75
		c-2.29,2.29-2.29,6,0,8.29l0,0C10.63,107.33,14.35,107.33,16.64,105.04z"/>
</g>
</svg>
