<?xml version="1.0" encoding="utf-8"?>
<!-- Generator: Adobe Illustrator 27.0.0, SVG Export Plug-In . SVG Version: 6.00 Build 0)  -->
<svg version="1.1" id="Calque_1" xmlns="http://www.w3.org/2000/svg" xmlns:xlink="http://www.w3.org/1999/xlink" x="0px" y="0px"
	 viewBox="0 0 113.39 113.39" style="enable-background:new 0 0 113.39 113.39;" xml:space="preserve">
<style type="text/css">
	.st0{fill-rule:evenodd;clip-rule:evenodd;}
</style>
<path class="st0" d="M104.07,15.71H9.32c-2.45,0-4.44-1.99-4.44-4.44v0c0-2.45,1.99-4.44,4.44-4.44h94.75
	c2.45,0,4.44,1.99,4.44,4.44v0C108.51,13.72,106.52,15.71,104.07,15.71z"/>
<path class="st0" d="M104.07,38.61H9.32c-2.45,0-4.44,1.99-4.44,4.44v0c0,2.45,1.99,4.44,4.44,4.44h94.75
	c2.45,0,4.44-1.99,4.44-4.44v0C108.51,40.6,106.52,38.61,104.07,38.61z"/>
<path class="st0" d="M104.07,68.54H9.32c-2.45,0-4.44,1.99-4.44,4.44v0c0,2.45,1.99,4.44,4.44,4.44h94.75
	c2.45,0,4.44-1.99,4.44-4.44v0C108.51,70.53,106.52,68.54,104.07,68.54z"/>
<path class="st0" d="M104.07,108.95H9.32c-2.45,0-4.44-1.99-4.44-4.44v0c0-2.45,1.99-4.44,4.44-4.44h94.75
	c2.45,0,4.44,1.99,4.44,4.44v0C108.51,106.96,106.52,108.95,104.07,108.95z"/>
</svg>
