<?xml version="1.0" encoding="utf-8"?>
<!-- Generator: Adobe Illustrator 27.0.0, SVG Export Plug-In . SVG Version: 6.00 Build 0)  -->
<svg version="1.1" id="Calque_2" xmlns="http://www.w3.org/2000/svg" xmlns:xlink="http://www.w3.org/1999/xlink" x="0px" y="0px"
	 viewBox="0 0 113.4 113.4" style="enable-background:new 0 0 113.4 113.4;" xml:space="preserve">
<path d="M26,113.4L26,113.4c-8.7,0-15.8-7.1-15.8-15.8V15.8C10.2,7.1,17.2,0,26,0h0c8.7,0,15.8,7.1,15.8,15.8v81.8
	C41.8,106.3,34.7,113.4,26,113.4z"/>
<path d="M87.4,113.4L87.4,113.4c-8.7,0-15.8-7.1-15.8-15.8V15.8C71.6,7.1,78.7,0,87.4,0h0c8.7,0,15.8,7.1,15.8,15.8v81.8
	C103.2,106.3,96.1,113.4,87.4,113.4z"/>
</svg>
