<?xml version="1.0" encoding="utf-8"?>
<!-- Generator: Adobe Illustrator 27.0.0, SVG Export Plug-In . SVG Version: 6.00 Build 0)  -->
<svg version="1.1" id="Calque_1" xmlns="http://www.w3.org/2000/svg" xmlns:xlink="http://www.w3.org/1999/xlink" x="0px" y="0px"
	 viewBox="0 0 113.39 113.39" style="enable-background:new 0 0 113.39 113.39;" xml:space="preserve">
<g>
	<path d="M26.91,82.28c-0.48-0.28-0.81-0.49-1.15-0.66c-6.12-3.12-10.47-7.82-12.82-14.31c-0.41-1.13-0.5-2.27,0.18-3.3
		c0.48-0.73,0.26-1.2-0.3-1.71c-2.49-2.28-4.37-4.99-5.74-8.06c-1.33-2.97-2-6.1-2.15-9.33c-0.07-1.63,0.5-3,2.06-3.74
		c0.88-0.41,0.84-0.93,0.49-1.69c-2.97-6.39-3.16-12.9-0.65-19.47c0.46-1.2,1.04-2.37,1.68-3.48c1.34-2.3,4.12-2.5,5.83-0.44
		c5.27,6.34,11.65,11.29,19.01,14.94c5.56,2.76,11.43,4.59,17.59,5.48c1.36,0.19,1.57,0.04,1.56-1.25
		c-0.07-10.56,7-19.34,16.27-22.75c8.76-3.23,17.14-2.28,24.45,3.59c3.59,2.88,7.06,2.57,10.87,1.45c1.12-0.33,2.17-0.92,3.22-1.46
		c1.27-0.65,2.52-0.88,3.77-0.05c1.35,0.89,1.76,2.21,1.62,3.75c-0.36,3.96-1.83,7.53-4.1,10.74c-1.38,1.95-3.01,3.73-4.61,5.5
		c-0.66,0.74-1.01,1.47-1.01,2.46c0,10.43-2.45,20.29-7.33,29.47C87.73,82.9,75.8,93.28,59.84,98.93
		c-6.66,2.36-13.54,3.48-20.63,3.64c-13.14,0.29-25.28-2.94-36.45-9.84c-2.05-1.26-2.56-2.99-1.5-4.86c0.8-1.4,2.07-1.81,3.58-1.66
		c5.77,0.56,11.43,0.06,16.96-1.71c1.44-0.46,2.83-1.07,4.24-1.63C26.3,82.76,26.51,82.56,26.91,82.28z M18.5,92.5
		c0.36,0.2,0.45,0.26,0.56,0.3c0.49,0.17,0.97,0.36,1.46,0.51c7.45,2.23,15.07,2.9,22.79,2.17c15.11-1.42,27.93-7.55,38.14-18.89
		c5.05-5.61,8.82-11.99,11.36-19.1c2.48-6.93,3.57-14.07,3.32-21.42c-0.06-1.63,0.57-2.79,1.81-3.81c1.25-1.02,2.41-2.18,3.46-3.4
		c0.96-1.12,1.72-2.42,2.57-3.64c-0.08-0.1-0.16-0.19-0.23-0.29c-0.38,0.02-0.77,0.04-1.15,0.06c-1.66,0.08-3.32,0.27-4.97,0.21
		c-2.76-0.11-5.32-0.67-7.45-2.82c-1.34-1.36-3.08-2.49-4.84-3.23c-6.77-2.81-13.21-1.83-19.03,2.49c-4.66,3.47-7.12,8.2-6.93,14.12
		c0.05,1.4,0.3,2.78,0.4,4.18c0.19,2.56-1.31,4.08-3.86,3.94c-1.21-0.07-2.43-0.13-3.64-0.28c-14.42-1.72-27.02-7.4-37.65-17.35
		c-0.57-0.54-1.21-1.01-1.94-1.62c-0.19,0.51-0.33,0.77-0.38,1.04c-0.8,3.99-0.16,7.78,1.64,11.39c1.4,2.81,3.59,4.92,6.05,6.8
		c1.62,1.24,1.99,2.58,1.34,4.16c-0.63,1.54-2.08,2.33-3.98,2.12c-1.14-0.12-2.27-0.29-3.4-0.44c-1.04-0.14-1.28,0.1-0.9,1.06
		c1.06,2.68,2.62,5.03,4.78,6.96c2.48,2.21,5.4,3.55,8.6,4.38c1.91,0.5,2.78,1.65,2.76,3.37c-0.03,1.71-1.07,2.93-2.96,3.37
		c-0.93,0.22-1.89,0.33-2.83,0.52c-0.41,0.08-0.81,0.23-1.62,0.46c1.22,1.23,2.13,2.32,3.22,3.22c3.24,2.66,6.99,4.07,11.18,4.26
		c1.35,0.06,2.43,0.54,3.1,1.78c0.92,1.7,0.52,3.31-1.24,4.64c-5.42,4.08-11.44,6.86-18.05,8.37C19.61,92.17,19.21,92.3,18.5,92.5z"
		/>
</g>
</svg>
